HIERARCHY
ROOT Hips
{
	OFFSET 0.00 0.00 0.00
	CHANNELS 6 Xposition Yposition Zposition Yrotation Xrotation Zrotation
	JOINT LHipJoint
	{
		OFFSET	0.0000	0.0000	0.0000
		CHANNELS 3 Yrotation Xrotation Zrotation
		JOINT LeftUpLeg
		{
			OFFSET	1.0138	-0.0809	-0.0827
			CHANNELS 3 Yrotation Xrotation Zrotation
			JOINT LeftLeg
			{
				OFFSET	0.4110	-3.9095	0.3245
				CHANNELS 3 Yrotation Xrotation Zrotation
				JOINT LeftFoot
				{
					OFFSET	0.3810	-4.0555	-0.1470
					CHANNELS 3 Yrotation Xrotation Zrotation
					JOINT LeftToeBase
					{
						OFFSET	0.1396	-0.4462	1.3079
						CHANNELS 3 Yrotation Xrotation Zrotation
						End Site
						{
							OFFSET 0.0161 -0.0248 0.1809
						}
					}
				}
			}
		}
	}
	JOINT LowerBack
	{
		OFFSET	0.0000	0.7977	-0.3873
		CHANNELS 3 Yrotation Xrotation Zrotation
		JOINT Spine
		{
			OFFSET	0.0000	1.4131	0.1715
			CHANNELS 3 Yrotation Xrotation Zrotation
			JOINT Spine1
			{
				OFFSET	0.0000	1.4392	-0.1032
				CHANNELS 3 Yrotation Xrotation Zrotation
				JOINT LeftShoulder
				{
					OFFSET	0.2274	1.0382	0.4032
					CHANNELS 3 Yrotation Xrotation Zrotation
					JOINT LeftArm
					{
						OFFSET	1.4730	-0.2267	-0.0231
						CHANNELS 3 Yrotation Xrotation Zrotation
						JOINT LeftForeArm
						{
							OFFSET	1.6131	-1.8059	0.0081
							CHANNELS 3 Yrotation Xrotation Zrotation
							JOINT LeftHand
							{
								OFFSET	1.2197	-1.2423	1.6317
								CHANNELS 3 Yrotation Xrotation Zrotation
								JOINT LThumb
								{
									OFFSET	0.0109	-0.0753	0.4387
									CHANNELS 3 Yrotation Xrotation Zrotation
									End Site
									{
										OFFSET -0.2090 -0.0868 0.2097
									}
								}
								JOINT LeftFingerBase
								{
									OFFSET	0.1071	-0.1567	0.2607
									CHANNELS 3 Yrotation Xrotation Zrotation
									JOINT LeftHandFinger1
									{
										OFFSET	0.1706	-0.2492	0.6830
										CHANNELS 3 Yrotation Xrotation Zrotation
										End Site
										{
											OFFSET 0.0335 -0.1507 0.2071
										}
									}
								}
							}
						}
					}
				}
				JOINT Neck
				{
					OFFSET	0.0000	1.7498	0.2381
					CHANNELS 3 Yrotation Xrotation Zrotation
					JOINT Neck1
					{
						OFFSET	0.0000	0.5043	0.1959
						CHANNELS 3 Yrotation Xrotation Zrotation
						JOINT Head
						{
							OFFSET	0.0000	0.5044	0.1959
							CHANNELS 3 Yrotation Xrotation Zrotation
							End Site
							{
								OFFSET 0.0000 1.4798 -0.0693
							}
						}
					}
				}
				JOINT RightShoulder
				{
					OFFSET	-0.2274	1.0382	0.4032
					CHANNELS 3 Yrotation Xrotation Zrotation
					JOINT RightArm
					{
						OFFSET	-1.4730	-0.2267	-0.0231
						CHANNELS 3 Yrotation Xrotation Zrotation
						JOINT RightForeArm
						{
							OFFSET	-1.6131	-1.8059	0.0081
							CHANNELS 3 Yrotation Xrotation Zrotation
							JOINT RightHand
							{
								OFFSET	-1.2197	-1.2423	1.6317
								CHANNELS 3 Yrotation Xrotation Zrotation
								JOINT RThumb
								{
									OFFSET	-0.0109	-0.0753	0.4387
									CHANNELS 3 Yrotation Xrotation Zrotation
									End Site
									{
										OFFSET 0.2090 -0.0868 0.2097
									}
								}
								JOINT RightFingerBase
								{
									OFFSET	-0.1071	-0.1567	0.2607
									CHANNELS 3 Yrotation Xrotation Zrotation
									JOINT RightHandFinger1
									{
										OFFSET	-0.1706	-0.2492	0.6830
										CHANNELS 3 Yrotation Xrotation Zrotation
										End Site
										{
											OFFSET -0.0335 -0.1507 0.2071
										}
									}
								}
							}
						}
					}
				}
			}
		}
	}
	JOINT RHipJoint
	{
		OFFSET	0.0000	0.0000	0.0000
		CHANNELS 3 Yrotation Xrotation Zrotation
		JOINT RightUpLeg
		{
			OFFSET	-1.0138	-0.0809	-0.0827
			CHANNELS 3 Yrotation Xrotation Zrotation
			JOINT RightLeg
			{
				OFFSET	-0.4110	-3.9095	0.3245
				CHANNELS 3 Yrotation Xrotation Zrotation
				JOINT RightFoot
				{
					OFFSET	-0.3810	-4.0555	-0.1470
					CHANNELS 3 Yrotation Xrotation Zrotation
					JOINT RightToeBase
					{
						OFFSET	-0.1396	-0.4462	1.3079
						CHANNELS 3 Yrotation Xrotation Zrotation
						End Site
						{
							OFFSET -0.0161 -0.0248 0.1809
						}
					}
				}
			}
		}
	}
}
MOTION
Frames: 9
Frame Time: 0.0333333
-0.0355 8.4708 -0.0212 86.7827 1.3060 -5.7862 0.0000 -0.0000 0.0000 6.3837 -6.7541 -2.0185 30.6089 58.5268 29.5229 6.3124 3.7252 0.4098 0.0000 -2.6630 -0.0000 0.0000 -0.0000 0.0000 -15.0877 3.0303 2.6577 -29.9476 6.4889 4.0728 -22.2153 0.9567 -4.1113 -6.4472 -3.4671 -21.6210 13.7865 16.0730 -0.1586 -8.2752 -18.1943 27.8179 18.4487 0.1182 17.2394 -3.7671 21.0101 -9.4615 -0.8489 -9.2311 1.5687 -5.3208 3.4956 0.8693 -5.3294 3.4575 0.5309 -33.4018 -11.6401 9.8132 -2.0478 4.2288 3.2435 13.8285 6.8564 26.6184 -17.1779 19.4113 -0.8123 10.7011 38.8175 -18.1497 -18.4487 0.1182 -17.2393 3.7671 21.0101 9.4615 0.8489 -9.2311 -1.5687 0.0000 -0.0000 0.0000 -0.1206 -11.8089 20.1674 -7.3706 13.5750 -4.5581 -5.8092 -5.6861 -10.2349 -0.0000 -1.6804 0.0000 
-0.0676 8.5877 -0.0399 86.4918 1.3718 -5.0239 0.0000 -0.0000 0.0000 3.7611 -14.7171 -3.7588 30.1754 58.2070 28.5291 5.5454 -2.7519 2.1031 -0.0000 -0.9641 -0.0000 0.0000 -0.0000 0.0000 -14.3757 2.8203 2.5093 -28.5509 5.8381 3.3994 -22.1698 0.8613 -4.8110 0.0124 -2.2497 -23.3058 19.3952 21.4948 1.5472 -12.4047 -14.9552 29.4438 18.4441 0.1157 17.2342 -1.4356 19.9164 -7.6951 1.5264 -12.2447 3.3893 -5.6369 4.1317 1.0018 -5.6455 4.0907 0.6822 -34.2266 -11.5913 10.4087 -1.2806 4.1405 3.1775 17.3779 1.9090 24.7528 -16.7775 19.0264 -0.6878 7.9960 31.9696 -20.1449 -21.3200 -0.6718 -17.1113 2.5746 19.8366 8.3371 -0.1492 -10.4770 -2.3401 0.0000 -0.0000 0.0000 -0.5771 -4.9223 19.2809 -7.3739 8.5586 -4.7790 -2.5361 -6.1404 -9.5131 0.0000 -3.6217 0.0000 
-0.0893 8.6469 -0.0658 85.6704 1.4727 -4.3536 0.0000 -0.0000 0.0000 2.0115 -21.9180 -4.5651 27.6386 55.8368 25.4167 4.5440 -7.1817 3.1113 0.0000 0.3842 0.0000 0.0000 -0.0000 0.0000 -13.5345 2.7018 2.3926 -26.9519 5.4610 2.9377 -21.9765 0.7922 -5.4687 6.7708 -0.3305 -24.1674 24.1909 25.7111 3.3866 -15.5865 -11.4958 32.5994 18.4424 0.1146 17.2320 0.3970 19.0935 -6.2880 3.0376 -14.2483 4.5186 -5.9344 4.5373 1.0150 -5.9466 4.4862 0.7252 -34.8634 -12.0569 10.8267 0.1023 3.9119 2.2019 22.4119 -1.2453 22.2467 -14.9930 17.2806 -0.1649 4.8954 24.1067 -17.1535 -21.8246 -0.6791 -17.1795 0.7061 18.0400 6.5909 -1.4884 -12.1950 -3.3605 0.0000 -0.0000 0.0000 -1.8480 0.2986 17.9043 -6.1716 7.0414 -4.4205 -0.2658 -7.1866 -8.8522 -0.0000 -6.4262 -0.0000 
-0.1010 8.6430 -0.0962 84.2762 1.7540 -3.7062 0.0000 -0.0000 0.0000 1.2910 -28.0277 -4.8185 23.2223 50.2087 20.3046 3.1569 -9.1788 3.8380 0.0000 1.0884 -0.0000 0.0000 -0.0000 0.0000 -12.6090 2.5768 2.2719 -25.2147 5.1848 2.7540 -21.5178 0.7734 -6.0331 13.3942 2.4198 -24.2954 27.5054 28.3836 4.8402 -16.3916 -7.5285 35.5445 18.4517 0.1197 17.2427 2.6483 17.4743 -4.2769 3.5975 -15.0150 4.9325 -6.1821 4.6874 0.8423 -6.2015 4.6222 0.5795 -35.2664 -12.8051 10.9839 1.8719 3.6471 0.4623 27.8408 -3.0415 19.1967 -12.3106 14.5677 0.5204 1.1427 16.7072 -11.0136 -20.1762 -0.2529 -17.2494 -1.1209 16.1281 4.8631 -2.7284 -13.8329 -4.2894 0.0000 -0.0000 0.0000 -3.9752 4.6067 15.5840 -3.2186 8.3394 -3.1117 1.0059 -9.5785 -8.6029 0.0000 -8.7234 -0.0000 
-0.0944 8.5830 -0.1264 82.4702 2.3049 -3.1179 0.0000 -0.0000 0.0000 1.5241 -32.5512 -4.8152 17.4369 40.6518 13.8960 1.4956 -9.1951 4.3416 0.0000 1.1523 -0.0000 0.0000 -0.0000 0.0000 -11.6887 2.3716 2.1923 -23.4844 4.8176 2.8420 -20.6477 0.8524 -6.3765 19.2683 6.0751 -23.9908 28.9320 29.4723 5.5077 -14.2089 -3.2852 36.0591 18.4659 0.1278 17.2592 5.6584 14.4171 -1.3405 3.6001 -15.0119 4.9329 -6.3577 4.5985 0.4645 -6.3864 4.5192 0.2103 -35.4428 -13.4625 10.8446 3.6552 3.4518 -1.6235 32.2315 -4.5050 15.7732 -9.3965 11.5140 1.1214 -2.6193 11.3953 -5.0839 -17.3005 0.0594 -16.9719 -2.1895 14.7639 3.7992 -3.4838 -14.8525 -4.8473 0.0000 -0.0000 0.0000 -6.7800 8.1484 12.3063 1.3235 8.7597 -0.7073 1.5058 -12.4655 -8.8396 0.0000 -9.5025 0.0000 
-0.0809 8.4793 -0.1557 80.6324 3.0306 -2.5827 0.0000 -0.0000 0.0000 2.3135 -35.3177 -4.8136 11.4301 28.2356 8.0052 0.4411 -8.5893 4.3273 -0.0000 0.8913 0.0000 0.0000 -0.0000 0.0000 -10.8915 2.0753 2.1103 -21.9525 4.3074 3.0865 -19.3130 1.0745 -6.2814 23.9771 10.4265 -23.6223 28.8321 29.3972 5.4602 -9.8138 0.8457 33.0976 18.4598 0.1248 17.2526 8.5478 10.8338 1.5753 3.4052 -14.7457 4.7896 -6.4650 4.3543 -0.0227 -6.5019 4.2649 -0.2911 -35.4570 -13.7470 10.4940 5.1282 3.3476 -3.5149 34.7043 -6.7029 12.1653 -6.7601 8.6722 1.5312 -5.0829 8.5403 -2.5297 -14.4762 -0.1531 -16.2723 -2.2198 14.2799 3.6545 -3.5955 -15.0175 -4.9322 0.0000 -0.0000 0.0000 -9.6345 11.7274 8.5743 5.6733 8.9548 1.6906 1.8319 -15.5502 -9.9696 0.0000 -9.7633 0.0000 
-0.0682 8.3513 -0.1826 79.1265 3.6591 -2.1394 0.0000 -0.0000 0.0000 3.1323 -36.4527 -4.8443 7.1853 15.9799 4.5288 -0.1228 -8.5854 3.6156 0.0000 0.4585 0.0000 0.0000 -0.0000 0.0000 -10.2910 1.7791 2.0110 -20.7657 3.7920 3.3123 -17.6991 1.4153 -5.5449 27.6802 14.8878 -23.4247 28.1263 28.8619 5.1278 -4.5768 4.7806 27.8885 18.4218 0.1037 17.2087 10.0353 8.8400 3.0682 3.3464 -14.6658 4.7463 -6.5267 4.0881 -0.4226 -6.5676 3.9952 -0.7129 -35.3683 -13.7124 10.0871 6.1968 3.2968 -4.8641 35.4545 -9.7689 8.7346 -4.5418 6.2366 1.7743 -5.8267 7.3035 -4.0225 -12.3660 -0.7719 -15.4468 -1.5697 14.3694 4.1466 -3.5964 -15.0163 -4.9323 0.0000 -0.0000 0.0000 -11.8876 15.0377 5.1917 8.3954 9.0971 2.8835 2.1090 -17.7689 -10.7968 -0.0000 -12.0891 0.0000 
-0.0561 8.2212 -0.2061 78.0954 3.9108 -1.7315 0.0000 -0.0000 0.0000 3.7136 -36.4777 -4.9753 5.4645 8.0078 3.1945 -0.1599 -9.0562 2.7413 0.0000 -0.3986 0.0000 0.0000 -0.0000 0.0000 -9.8916 1.5692 1.8561 -19.9926 3.4160 3.3349 -16.2594 1.7558 -4.2167 30.9432 18.7473 -23.4995 27.7244 28.5531 4.9411 0.4087 8.4986 22.8822 18.4056 0.0938 17.1892 9.6622 9.6007 2.6156 3.3588 -14.6826 4.7555 -6.5634 3.9364 -0.5428 -6.6022 3.8486 -0.8407 -35.1835 -13.6181 9.7285 6.8627 3.2743 -5.5725 35.2911 -12.8544 6.0662 -2.7284 4.2238 1.9028 -5.4243 6.3737 -7.9531 -10.8211 -1.2967 -14.8448 -0.8754 14.4850 4.6782 -3.5829 -14.9875 -4.9200 0.0000 -0.0000 0.0000 -13.0139 18.2412 2.7620 8.6409 9.6274 2.1271 2.3496 -18.2567 -10.2613 0.0000 -17.0138 -0.0000 
-0.0309 8.1145 -0.2289 77.5004 3.6778 -1.2331 0.0000 -0.0000 0.0000 4.1396 -35.7199 -5.3868 6.1025 6.1970 2.9199 0.3975 -8.3290 2.7732 0.0000 -1.8427 -0.0000 0.0000 -0.0000 0.0000 -9.6970 1.4554 1.6549 -19.6599 3.1644 3.0093 -15.5035 1.9735 -2.7710 34.0637 21.5430 -23.8504 28.0694 28.8184 5.1012 4.5578 11.9765 19.7773 18.5402 0.1681 17.3441 8.0352 12.1031 0.9300 3.0852 -14.3125 4.5538 -6.5789 3.9455 -0.3339 -6.6093 3.8726 -0.6158 -34.8868 -13.5849 9.4107 7.0299 3.2739 -5.6784 35.0387 -14.9236 4.5878 -1.3445 2.6794 1.9579 -4.4579 4.4666 -12.3792 -9.4492 -1.3750 -14.5978 -0.5504 14.3671 4.8806 -3.6002 -15.0118 -4.9329 0.0000 -0.0000 0.0000 -13.0001 21.6256 1.4383 7.0362 10.4448 -0.4704 1.5960 -15.5425 -7.9359 -0.0078 -22.0546 0.5001 
